<svg width="278" height="320" viewBox="0 0 278 320" fill="none" xmlns="http://www.w3.org/2000/svg">
<path d="M32.3364 319.562C27.0121 319.552 21.782 318.157 17.1606 315.512C6.75437 309.615 0.285156 298.169 0.285156 285.742V34.2574C0.285156 21.7959 6.75437 10.3837 17.1606 4.48684C21.892 1.76766 27.267 0.369311 32.7237 0.437958C38.1803 0.506605 43.5184 2.03973 48.1799 4.87708L263.112 133.533C267.592 136.342 271.284 140.242 273.844 144.868C276.404 149.495 277.746 154.695 277.746 159.982C277.746 165.269 276.404 170.47 273.844 175.096C271.284 179.722 267.592 183.623 263.112 186.431L48.1452 315.122C43.3748 318.006 37.9108 319.541 32.3364 319.562Z" fill="#FF6600"/>
</svg>
