<svg width="37" height="37" viewBox="0 0 37 37" fill="none" xmlns="http://www.w3.org/2000/svg">
<path d="M18.4997 20.6581L10.9456 28.2122C10.6629 28.4949 10.3032 28.6362 9.86641 28.6362C9.4296 28.6362 9.06988 28.4949 8.78724 28.2122C8.5046 27.9296 8.36328 27.5699 8.36328 27.1331C8.36328 26.6963 8.5046 26.3365 8.78724 26.0539L16.3414 18.4997L8.78724 10.9456C8.5046 10.6629 8.36328 10.3032 8.36328 9.86641C8.36328 9.4296 8.5046 9.06988 8.78724 8.78724C9.06988 8.5046 9.4296 8.36328 9.86641 8.36328C10.3032 8.36328 10.6629 8.5046 10.9456 8.78724L18.4997 16.3414L26.0539 8.78724C26.3365 8.5046 26.6963 8.36328 27.1331 8.36328C27.5699 8.36328 27.9296 8.5046 28.2122 8.78724C28.4949 9.06988 28.6362 9.4296 28.6362 9.86641C28.6362 10.3032 28.4949 10.6629 28.2122 10.9456L20.6581 18.4997L28.2122 26.0539C28.4949 26.3365 28.6362 26.6963 28.6362 27.1331C28.6362 27.5699 28.4949 27.9296 28.2122 28.2122C27.9296 28.4949 27.5699 28.6362 27.1331 28.6362C26.6963 28.6362 26.3365 28.4949 26.0539 28.2122L18.4997 20.6581Z" fill="black"/>
</svg>
