<svg width="35" height="35" viewBox="0 0 35 35" fill="none" xmlns="http://www.w3.org/2000/svg">
<path d="M5.83398 8.75033C5.83398 8.36355 5.98763 7.99262 6.26112 7.71913C6.53461 7.44564 6.90554 7.29199 7.29232 7.29199H27.709C28.0958 7.29199 28.4667 7.44564 28.7402 7.71913C29.0137 7.99262 29.1673 8.36355 29.1673 8.75033C29.1673 9.1371 29.0137 9.50803 28.7402 9.78152C28.4667 10.055 28.0958 10.2087 27.709 10.2087H7.29232C6.90554 10.2087 6.53461 10.055 6.26112 9.78152C5.98763 9.50803 5.83398 9.1371 5.83398 8.75033ZM5.83398 26.2503C5.83398 25.8636 5.98763 25.4926 6.26112 25.2191C6.53461 24.9456 6.90554 24.792 7.29232 24.792H27.709C28.0958 24.792 28.4667 24.9456 28.7402 25.2191C29.0137 25.4926 29.1673 25.8636 29.1673 26.2503C29.1673 26.6371 29.0137 27.008 28.7402 27.2815C28.4667 27.555 28.0958 27.7087 27.709 27.7087H7.29232C6.90554 27.7087 6.53461 27.555 6.26112 27.2815C5.98763 27.008 5.83398 26.6371 5.83398 26.2503ZM7.29232 16.042C6.90554 16.042 6.53461 16.1956 6.26112 16.4691C5.98763 16.7426 5.83398 17.1136 5.83398 17.5003C5.83398 17.8871 5.98763 18.258 6.26112 18.5315C6.53461 18.805 6.90554 18.9587 7.29232 18.9587H18.959C19.3458 18.9587 19.7167 18.805 19.9902 18.5315C20.2637 18.258 20.4173 17.8871 20.4173 17.5003C20.4173 17.1136 20.2637 16.7426 19.9902 16.4691C19.7167 16.1956 19.3458 16.042 18.959 16.042H7.29232Z" fill="black"/>
</svg>
